<?xml version="1.0" encoding="UTF-8"?>
<svg width="14px" height="14px" viewBox="0 0 14 14" version="1.1" xmlns="http://www.w3.org/2000/svg" xmlns:xlink="http://www.w3.org/1999/xlink">
    <title>close-icon</title>
    <g id="page-1" stroke="none" stroke-width="1" fill="none" fill-rule="evenodd">
        <g id="icon board" transform="translate(-507.000000, -468.000000)" fill="#060706" fill-rule="nonzero">
            <g id="close-icon" transform="translate(507.000000, 468.000000)">
                <rect id="rect" opacity="0" x="0" y="0" width="14" height="14"></rect>
                <path d="M1.25985833,0.200915979 C0.970299729,-0.0587733166 0.510031827,-0.0550593945 0.225377009,0.209263255 C-0.0592778091,0.473585903 -0.0632774127,0.900978042 0.216387646,1.16985421 L5.95547643,6.49969975 L0.216387646,11.8295453 C0.0298577302,12.0026294 -0.0430608235,12.2549704 0.0250996986,12.4915137 C0.0932602206,12.7280571 0.292144613,12.9128663 0.546835049,12.9763255 C0.801525485,13.0397847 1.07332843,12.9722529 1.25985833,12.7991688 L6.99968508,7.46863798 L12.7395118,12.7991688 C12.9260417,12.9723753 13.197915,13.0400202 13.4527196,12.9766222 C13.7075242,12.9132242 13.9065493,12.728415 13.9748239,12.4918104 C14.0430986,12.2552059 13.9702504,12.0027518 13.7837205,11.8295453 L8.04315577,6.49969975 L13.7837205,1.16985421 C14.0718669,0.90210008 14.0717017,0.46813827 13.7833515,0.20057337 C13.4950012,-0.0669915296 13.0276583,-0.0668381384 12.7395118,0.200915979 L6.99968508,5.53007627 L1.25985833,0.200915979 Z" id="path"></path>
            </g>
        </g>
    </g>
</svg>