<?xml version="1.0" encoding="UTF-8"?>
<svg width="22px" height="22px" viewBox="0 0 22 22" version="1.1" xmlns="http://www.w3.org/2000/svg" xmlns:xlink="http://www.w3.org/1999/xlink">
    <title>copy-icon</title>
    <g id="page-1" stroke="none" stroke-width="1" fill="none" fill-rule="evenodd">
        <g id="board" transform="translate(-426.000000, -464.000000)" fill-rule="nonzero">
            <g id="copy-icon" transform="translate(426.000000, 464.000000)">
                <rect id="rect" fill="#000000" opacity="0" x="0" y="0" width="22" height="22"></rect>
                <path d="M12.6363036,6.4927495 L14.4983498,8.34375889 L14.4983498,18.5072505 L4.50165017,18.5072505 L4.50165017,6.4927495 L12.6363036,6.4927495 M13.2584158,5 L4.27425743,5 C3.57062706,5 3,5.56511231 3,6.26457208 L3,18.7332954 C3,19.0680978 3.13514851,19.3901052 3.37326733,19.6289451 C3.61138614,19.867785 3.93531353,20 4.27425743,20 L14.730033,20 C15.0668317,20 15.3907591,19.8656525 15.6288779,19.6289451 C15.8669967,19.3922377 16,19.0702303 16,18.7332954 L16,7.72533409 L13.2584158,5 Z" id="stroke" fill="#000000"></path>
                <path d="M16.2584158,2 L7.27425743,2 C6.57062706,2 6,2.56511231 6,3.26457208 L6,5.39707137 L7.50165017,5.39707137 L7.50165017,3.4927495 L15.6363036,3.4927495 L17.4983498,5.34375889 L17.4983498,15.5072505 L15.6577558,15.5072505 L15.6577558,17 L17.730033,17 C18.0668317,17 18.3907591,16.8656525 18.6288779,16.6289451 C18.8669967,16.3922377 19,16.0702303 19,15.7332954 L19,4.72533409 L16.2584158,2 Z" id="path" fill="#000000"></path>
            </g>
        </g>
    </g>
</svg>