<?xml version="1.0" encoding="UTF-8"?>
<svg width="50px" height="50px" viewBox="0 0 50 50" version="1.1" xmlns="http://www.w3.org/2000/svg" xmlns:xlink="http://www.w3.org/1999/xlink">
    <title>discord-blue</title>
    <g id="page-1" stroke="none" stroke-width="1" fill="none" fill-rule="evenodd">
        <g id="board" transform="translate(-157.000000, -241.000000)">
            <g id="Discord-icon2" transform="translate(157.000000, 241.000000)">
                <rect id="rect-9" fill="#D8D8D8" opacity="0" x="0" y="0" width="50" height="50"></rect>
                <rect id="rect-2" fill="#5249FF" x="0" y="0" width="50" height="50" rx="9"></rect>
                <g id="discord-line" transform="translate(11.764706, 15.686275)" fill="#000000" fill-rule="nonzero">
                    <path d="M17.3158276,17.0891053 C16.9625288,17.1760252 16.6069266,17.2531208 16.2494247,17.3203046 C14.3092139,17.6887868 12.3172163,17.6812423 10.379802,17.2980739 C10.0404919,17.2313818 9.56016997,17.1135591 8.94103936,16.9468289 L6.91178917,19.6078431 C1.90366142,19.445559 0,16.0598241 0,16.0598241 C0,8.54362591 3.26310479,2.45019225 3.26310479,2.45019225 C6.52620959,-0.0685455492 9.63067598,0.000184064967 9.63067598,0.000184064967 L10.5186106,1.16748109 C10.6004468,1.15590668 10.6828075,1.14848711 10.7653816,1.14525043 C12.4579753,0.918877518 14.1732537,0.92635659 15.8638451,1.16748109 L16.8377089,0.000184064967 C16.8377089,0.000184064967 19.9443786,-0.0685456013 23.2052801,2.45241534 C23.2052801,2.45241534 26.4705882,8.54362596 26.4705882,16.0598241 C26.4705882,16.0598241 24.5426904,19.443336 19.5345626,19.6078431 L17.3158276,17.0868823 L17.3158276,17.0891053 Z M8.85951681,9.13051628 C7.53532644,9.13051628 6.4887533,10.1308976 6.4887533,11.3535859 C6.4887533,12.5762741 7.55735952,13.5766554 8.85951681,13.5766554 C10.1815039,13.5766554 11.228077,12.5762741 11.228077,11.3535859 C11.2501102,10.1308976 10.1837072,9.13051628 8.85951681,9.13051628 L8.85951681,9.13051628 Z M17.3378607,9.13051628 C16.0158736,9.13051628 14.9693005,10.1308976 14.9693005,11.3535859 C14.9693005,12.5762741 16.0379067,13.5766554 17.3378607,13.5766554 C18.6620512,13.5766554 19.7086242,12.5762741 19.7086242,11.3535859 C19.7086242,10.1308976 18.6620511,9.13051628 17.3378607,9.13051628 L17.3378607,9.13051628 Z" id="path"></path>
                </g>
            </g>
        </g>
    </g>
</svg>