<?xml version="1.0" encoding="UTF-8"?>
<svg width="71px" height="50px" viewBox="0 0 71 50" version="1.1" xmlns="http://www.w3.org/2000/svg" xmlns:xlink="http://www.w3.org/1999/xlink">
    <title>discord-line</title>
    <g id="page-1" stroke="none" stroke-width="1" fill="none" fill-rule="evenodd">
        <g id="web" transform="translate(-143.000000, -435.000000)" fill="#FFFFFF" fill-rule="nonzero">
            <g id="discord-line" transform="translate(143.000000, 435.000000)">
                <path d="M46.0330232,43.5772186 C45.0938008,43.7988642 44.1484551,43.9954579 43.198059,44.1667766 C38.0401325,45.1064064 32.7445338,45.0871679 27.5940414,44.1100884 C26.6920074,43.9400236 25.4151021,43.6395758 23.7691828,43.2144136 L18.3745506,50 C5.06076245,49.5861756 0,40.9525515 0,40.9525515 C0,21.7862461 8.67475595,6.24799024 8.67475595,6.24799024 C17.3495119,-0.174791151 25.6025378,0.000469365665 25.6025378,0.000469365665 L27.9630554,2.97707679 C28.1806116,2.94756204 28.3995625,2.92864214 28.6190802,2.92038861 C33.1187328,2.34313767 37.6786909,2.3622093 42.1730204,2.97707679 L44.7619752,0.000469365665 C44.7619752,0.000469365665 53.0208583,-0.174791283 61.689757,6.25365911 C61.689757,6.25365911 70.3703704,21.7862462 70.3703704,40.9525515 C70.3703704,40.9525515 65.245177,49.5805068 51.9313886,50 L46.0330232,43.5715497 L46.0330232,43.5772186 Z M23.5524603,23.2828165 C20.0321847,23.2828165 17.2499368,25.8337888 17.2499368,28.9516439 C17.2499368,32.0694991 20.0907582,34.6204714 23.5524603,34.6204714 C27.0668787,34.6204714 29.8491266,32.0694991 29.8491266,28.9516439 C29.9077003,25.8337888 27.0727361,23.2828165 23.5524603,23.2828165 L23.5524603,23.2828165 Z M46.0915969,23.2828165 C42.5771785,23.2828165 39.7949306,25.8337888 39.7949306,28.9516439 C39.7949306,32.0694991 42.6357521,34.6204714 46.0915969,34.6204714 C49.6118726,34.6204714 52.3941204,32.0694991 52.3941204,28.9516439 C52.3941204,25.8337888 49.6118725,23.2828165 46.0915969,23.2828165 L46.0915969,23.2828165 Z" id="path"></path>
            </g>
        </g>
    </g>
</svg>