<?xml version="1.0" encoding="UTF-8"?>
<svg width="68px" height="48px" viewBox="0 0 68 48" version="1.1" xmlns="http://www.w3.org/2000/svg" xmlns:xlink="http://www.w3.org/1999/xlink">
    <title>discord-line</title>
    <g id="page-1" stroke="none" stroke-width="1" fill="none" fill-rule="evenodd">
        <g id="web" transform="translate(-147.000000, -575.000000)" fill="#FFFFFF" fill-rule="nonzero">
            <g id="discord-line" transform="translate(147.000000, 575.000000)">
                <path d="M44.0705625,41.7194527 C43.1713807,41.9316492 42.2663365,42.1198619 41.3564573,42.283877 C36.4184214,43.1834488 31.3485824,43.1650305 26.4176637,42.2296055 C25.5540848,42.0667908 24.331616,41.7791515 22.7558649,41.3721147 L17.5912144,47.8684208 C4.84501413,47.4722383 0,39.2066793 0,39.2066793 C0,20.8574639 8.30493737,5.98162852 8.30493737,5.98162852 C16.6098747,-0.167339527 24.5110611,0.000449355863 24.5110611,0.000449355863 L26.770946,2.85015929 C26.9792275,2.8219028 27.1888441,2.80378948 27.3990035,2.79588781 C31.7068287,2.243246 36.0723886,2.26150458 40.3751177,2.85015929 L42.8537013,0.000449355863 C42.8537013,0.000449355863 50.7604951,-0.167339654 59.0598249,5.98705572 C59.0598249,5.98705572 67.37037,20.857464 67.37037,39.2066793 C67.37037,39.2066793 62.4636717,47.4668113 49.7174713,47.8684208 L44.0705625,41.7140255 L44.0705625,41.7194527 Z M22.5483816,22.2902332 C19.1781809,22.2902332 16.5145446,24.7324535 16.5145446,27.7173895 C16.5145446,30.7023255 19.2342574,33.1445458 22.5483816,33.1445458 C25.9129748,33.1445458 28.5766111,30.7023255 28.5766111,27.7173895 C28.6326877,24.7324535 25.9185825,22.2902332 22.5483816,22.2902332 L22.5483816,22.2902332 Z M44.1266391,22.2902332 C40.7620459,22.2902332 38.0984097,24.7324535 38.0984097,27.7173895 C38.0984097,30.7023255 40.8181224,33.1445458 44.1266391,33.1445458 C47.4968399,33.1445458 50.1604761,30.7023255 50.1604761,27.7173895 C50.1604761,24.7324535 47.4968398,22.2902332 44.1266391,22.2902332 L44.1266391,22.2902332 Z" id="path"></path>
            </g>
        </g>
    </g>
</svg>