<?xml version="1.0" encoding="UTF-8"?>
<svg width="16px" height="16px" viewBox="0 0 16 16" version="1.1" xmlns="http://www.w3.org/2000/svg" xmlns:xlink="http://www.w3.org/1999/xlink">
    <title>get</title>
    <g id="page-1" stroke="none" stroke-width="1" fill="none" fill-rule="evenodd">
        <g id="web" transform="translate(-1047.000000, -1710.000000)" fill="#000000" fill-rule="nonzero">
            <g id="get" transform="translate(1047.000000, 1710.000000)">
                <rect id="rect" opacity="0" x="0" y="0" width="16" height="16"></rect>
                <path d="M14.1115766,2.1305406 C13.6204095,2.1305406 13.149368,2.32569724 12.8021169,2.67306137 L5.81786108,9.6587284 L3.19788312,7.03945609 C2.85061768,6.691984 2.37950061,6.49675883 1.88824697,6.49675883 C1.39699332,6.49675883 0.925876261,6.691984 0.578610812,7.03945609 C0.231138725,7.38672154 0.0359135582,7.8578386 0.0359135582,8.34909224 C0.0359135582,8.84034589 0.231138725,9.31146295 0.578610812,9.6587284 L4.07038589,13.1505035 C4.54562294,13.6253877 5.18035418,13.8229005 5.81786108,13.8229005 C6.45536798,13.8229005 7.08833517,13.6253877 7.56392503,13.1505035 L15.4206836,5.2923337 C15.768289,4.94516103 15.9637036,4.47405304 15.9637036,3.98277065 C15.9637036,3.49148827 15.7685483,3.02032767 15.4210364,2.67306137 C15.0737853,2.32569724 14.6027438,2.1305406 14.1115766,2.1305406 Z" id="path"></path>
            </g>
        </g>
    </g>
</svg>