<?xml version="1.0" encoding="UTF-8"?>
<svg width="50px" height="50px" viewBox="0 0 50 50" version="1.1" xmlns="http://www.w3.org/2000/svg" xmlns:xlink="http://www.w3.org/1999/xlink">
    <title>github-blue</title>
    <g id="page-1" stroke="none" stroke-width="1" fill="none" fill-rule="evenodd">
        <g id="board" transform="translate(-247.000000, -241.000000)">
            <g id="Github-icon" transform="translate(247.000000, 241.000000)">
                <rect id="rect-10" fill="#D8D8D8" opacity="0" x="0" y="0" width="50" height="50"></rect>
                <g id="group" fill="#5249FF">
                    <rect id="group-2" x="0" y="0" width="50" height="50" rx="9"></rect>
                </g>
                <g id="github" fill="#000000" fill-rule="nonzero">
                    <path d="M35.4909883,16.4071897 C36.5786203,14.3958684 35.3356123,11.7647059 35.3356123,11.7647059 C32.5388446,11.7647059 30.5179795,13.6213102 30.5179795,13.6213102 C29.4303476,13.0024421 25.8557226,13.0024421 25.8557226,13.0024421 C25.8557226,13.0024421 22.2810977,13.0024421 21.1934658,13.6213102 C21.1934658,13.6213102 19.1735779,11.7647059 16.3758329,11.7647059 C16.3758329,11.7647059 15.132825,14.3948953 16.220457,16.4071897 C16.220457,16.4071897 13.7344411,18.727945 14.6666971,23.6798629 C15.5432522,28.3330504 19.6397059,29.5600829 22.2810977,29.5600829 C22.2810977,29.5600829 21.1934658,30.488385 21.3488418,32.0355553 C21.3488418,32.0355553 19.7950819,32.9638574 18.241322,32.3449893 C16.6875621,31.7261212 15.9106822,30.178951 15.9106822,30.178951 C15.9106822,30.178951 14.3569223,28.1676296 12.8031624,28.9412148 C12.8031624,28.9412148 12.3370345,29.4053658 14.0461703,30.178951 C14.0461703,30.178951 15.2891782,32.0355553 15.7553062,33.1185744 C16.2214342,34.2015936 18.70745,35.1298957 21.194443,34.5110276 L21.194443,38.0695192 C21.194443,38.0695192 21.194443,38.3789533 20.572939,38.5336703 C19.9514351,38.6883873 19.9514351,38.9978214 20.2621871,38.9978214 L31.4512126,38.9978214 C31.7619646,38.9978214 31.7619646,38.6883873 31.1404607,38.5336703 C30.5189567,38.3789533 30.5189567,38.0695192 30.5189567,38.0695192 L30.5189567,34.5110276 C30.5189567,34.5110276 30.5326376,32.6553964 30.5189567,32.0355553 C30.4847544,30.4806005 29.4313248,29.5600829 29.4313248,29.5600829 C32.0727166,29.5600829 36.1691703,28.3330504 37.0457254,23.6798629 C37.9779814,18.727945 35.4919655,16.4071897 35.4919655,16.4071897 L35.4909883,16.4071897 Z" id="path"></path>
                </g>
            </g>
        </g>
    </g>
</svg>