<?xml version="1.0" encoding="UTF-8"?>
<svg width="28px" height="28px" viewBox="0 0 28 28" version="1.1" xmlns="http://www.w3.org/2000/svg" xmlns:xlink="http://www.w3.org/1999/xlink">
    <title>Github-icon</title>
    <g id="page-1" stroke="none" stroke-width="1" fill="none" fill-rule="evenodd">
        <g id="board" transform="translate(-268.000000, -375.000000)" fill="#FFFFFF">
            <g id="Github-icon" transform="translate(268.000000, 375.000000)">
                <rect id="rect" opacity="0" x="0" y="0" width="28" height="28"></rect>
                <path d="M24.2008081,6.17823541 C25.3101927,4.36804623 24.0423246,2 24.0423246,2 C21.1896214,2 19.1283391,3.67094386 19.1283391,3.67094386 C18.0189545,3.11396258 14.3728371,3.11396258 14.3728371,3.11396258 C14.3728371,3.11396258 10.7267197,3.11396258 9.6173351,3.67094386 C9.6173351,3.67094386 7.5570495,2 4.7033496,2 C4.7033496,2 3.43548154,4.36717047 4.5448661,6.17823541 C4.5448661,6.17823541 2.00912997,8.26691524 2.96003102,12.7236413 C3.85411722,16.91151 8.03250002,18.0158393 10.7267197,18.0158393 C10.7267197,18.0158393 9.6173351,18.8513112 9.77581861,20.2437644 C9.77581861,20.2437644 8.19098353,21.0792364 6.60614845,20.5222551 C5.02131337,19.9652738 4.22889583,18.5728206 4.22889583,18.5728206 C4.22889583,18.5728206 2.64406075,16.7626314 1.05922567,17.458858 C1.05922567,17.458858 0.583775147,17.876594 2.32709374,18.5728206 C2.32709374,18.5728206 3.5949618,20.2437644 4.07041232,21.2184817 C4.54586285,22.1931989 7.08159898,23.0286709 9.61833186,22.4716896 L9.61833186,25.674332 C9.61833186,25.674332 9.61833186,25.9528226 8.98439782,26.092068 C8.35046379,26.2313133 8.35046379,26.5098039 8.66743081,26.5098039 L20.0802369,26.5098039 C20.3972039,26.5098039 20.3972039,26.2313133 19.7632699,26.092068 C19.1293358,25.9528226 19.1293358,25.674332 19.1293358,25.674332 L19.1293358,22.4716896 C19.1293358,22.4716896 19.1432904,20.8016215 19.1293358,20.2437644 C19.0944495,18.8443052 18.0199513,18.0158393 18.0199513,18.0158393 C20.7141709,18.0158393 24.8925537,16.91151 25.7866399,12.7236413 C26.737541,8.26691524 24.2018049,6.17823541 24.2018049,6.17823541 L24.2008081,6.17823541 Z" id="path" fill-rule="nonzero"></path>
            </g>
        </g>
    </g>
</svg>