<?xml version="1.0" encoding="UTF-8"?>
<svg width="37px" height="37px" viewBox="0 0 37 37" version="1.1" xmlns="http://www.w3.org/2000/svg" xmlns:xlink="http://www.w3.org/1999/xlink">
    <title>home</title>
    <g id="page-1" stroke="none" stroke-width="1" fill="none" fill-rule="evenodd">
        <g id="board" transform="translate(-163.000000, -456.000000)">
            <g id="home" transform="translate(163.000000, 456.000000)">
                <rect id="rect" fill="#FFFFFF" opacity="0" x="0" y="0" width="37" height="37"></rect>
                <circle id="circle" fill="#5249FF" cx="18.5" cy="18.5" r="18.5"></circle>
                <g transform="translate(13.454545, 11.212121)" fill="#FFFFFF" fill-rule="nonzero">
                    <path d="M5.04545455,10.0909091 C2.26393536,10.0909091 0,7.82697373 0,5.04545455 C0,2.26393536 2.26393536,0 5.04545455,0 C7.82697373,0 10.0909091,2.26393536 10.0909091,5.04545455 C10.0909091,7.82697373 7.82697373,10.0909091 5.04545455,10.0909091 Z M5.04545455,1.24654731 C2.95141311,1.24654731 1.24654731,2.9494376 1.24654731,5.04545455 C1.24654731,7.14147149 2.95141311,8.84436179 5.04545455,8.84436179 C7.13949598,8.84436179 8.84436179,7.14147149 8.84436179,5.04545455 C8.84436179,2.9494376 7.13949598,1.24654731 5.04545455,1.24654731 Z" ></path>
                    <path d="M8.44593583,15.6969697 L1.64651687,15.6969697 C0.740546085,15.6969697 0,14.9405463 0,14.0151515 C0,13.0897567 0.740546085,12.3333333 1.64651687,12.3333333 L8.44438981,12.3333333 C9.35036059,12.3333333 10.0909091,13.0897567 10.0909091,14.0151515 C10.0924527,14.9405463 9.35036059,15.6969697 8.44593583,15.6969697 Z" id="path"></path>
                </g>
            </g>
        </g>
    </g>
</svg>