<?xml version="1.0" encoding="UTF-8"?>
<svg width="35px" height="35px" viewBox="0 0 35 35" version="1.1" xmlns="http://www.w3.org/2000/svg" xmlns:xlink="http://www.w3.org/1999/xlink">
    <title>matemask</title>
    <g id="page-1" stroke="none" stroke-width="1" fill="none" fill-rule="evenodd">
        <g id="board" transform="translate(-69.000000, -457.000000)">
            <g id="mm-logo" transform="translate(69.000000, 457.000000)">
                <rect id="rect" fill="#D8D8D8" opacity="0" x="0" y="0" width="35" height="35"></rect>
                <polygon id="path" stroke="#E17726" stroke-width="0.25" fill="#E17726" fill-rule="nonzero" stroke-linecap="round" stroke-linejoin="round" points="32.9583 2 19.8242 11.7183 22.2666 5.99099"></polygon>
                <polygon id="path" stroke="#E27625" stroke-width="0.25" fill="#E27625" fill-rule="nonzero" stroke-linecap="round" stroke-linejoin="round" points="2.66284 2 15.68 11.809 13.3546 5.99098"></polygon>
                <polygon id="path" stroke="#E27625" stroke-width="0.25" fill="#E27625" fill-rule="nonzero" stroke-linecap="round" stroke-linejoin="round" points="28.2292 24.5334 24.7346 29.872 32.2175 31.9323 34.3611 24.6501"></polygon>
                <polygon id="path" stroke="#E27625" stroke-width="0.25" fill="#E27625" fill-rule="nonzero" stroke-linecap="round" stroke-linejoin="round" points="1.27271 24.6501 3.40325 31.9323 10.8732 29.872 7.39154 24.5334"></polygon>
                <polygon id="path" stroke="#E27625" stroke-width="0.25" fill="#E27625" fill-rule="nonzero" stroke-linecap="round" stroke-linejoin="round" points="10.4704 15.5149 8.39185 18.6507 15.7968 18.9876 15.55 11.0186"></polygon>
                <polygon id="path" stroke="#E27625" stroke-width="0.25" fill="#E27625" fill-rule="nonzero" stroke-linecap="round" stroke-linejoin="round" points="25.1503 15.515 19.9929 10.92798 19.824 18.9877 27.2289 18.6508"></polygon>
                <polygon id="path" stroke="#E27625" stroke-width="0.25" fill="#E27625" fill-rule="nonzero" stroke-linecap="round" stroke-linejoin="round" points="10.8733 29.872 15.3552 27.7081 11.4969 24.7019"></polygon>
                <polygon id="path" stroke="#E27625" stroke-width="0.25" fill="#E27625" fill-rule="nonzero" stroke-linecap="round" stroke-linejoin="round" points="20.2659 27.7081 24.7348 29.872 24.1242 24.7019"></polygon>
                <polygon id="path" stroke="#D5BFB2" stroke-width="0.25" fill="#D5BFB2" fill-rule="nonzero" stroke-linecap="round" stroke-linejoin="round" points="24.7348 29.8722 20.2659 27.7083 20.6296 30.6108 20.5906 31.8418"></polygon>
                <polygon id="path" stroke="#D5BFB2" stroke-width="0.25" fill="#D5BFB2" fill-rule="nonzero" stroke-linecap="round" stroke-linejoin="round" points="10.8733 29.8722 15.0305 31.8418 15.0045 30.6108 15.3552 27.7083"></polygon>
                <polygon id="path" stroke="#233447" stroke-width="0.25" fill="#233447" fill-rule="nonzero" stroke-linecap="round" stroke-linejoin="round" points="15.1083 22.7842 11.3928 21.6958 14.017 20.4907"></polygon>
                <polygon id="path" stroke="#233447" stroke-width="0.25" fill="#233447" fill-rule="nonzero" stroke-linecap="round" stroke-linejoin="round" points="20.5127 22.7842 21.604 20.4907 24.2412 21.6958"></polygon>
                <polygon id="path" stroke="#CC6228" stroke-width="0.25" fill="#CC6228" fill-rule="nonzero" stroke-linecap="round" stroke-linejoin="round" points="10.8732 29.872 11.5228 24.5334 7.3916 24.6501"></polygon>
                <polygon id="path" stroke="#CC6228" stroke-width="0.25" fill="#CC6228" fill-rule="nonzero" stroke-linecap="round" stroke-linejoin="round" points="24.0981 24.5334 24.7347 29.872 28.2293 24.6501"></polygon>
                <polygon id="path" stroke="#CC6228" stroke-width="0.25" fill="#CC6228" fill-rule="nonzero" stroke-linecap="round" stroke-linejoin="round" points="27.2289 18.6506 19.824 18.9875 20.5125 22.7842 21.6038 20.4906 24.241 21.6957"></polygon>
                <polygon id="path" stroke="#CC6228" stroke-width="0.25" fill="#CC6228" fill-rule="nonzero" stroke-linecap="round" stroke-linejoin="round" points="11.3928 21.6957 14.017 20.4906 15.1083 22.7842 15.7968 18.9875 8.39185 18.6506"></polygon>
                <polygon id="path" stroke="#E27525" stroke-width="0.25" fill="#E27525" fill-rule="nonzero" stroke-linecap="round" stroke-linejoin="round" points="8.39209 18.6506 11.497 24.7019 11.393 21.6957"></polygon>
                <polygon id="path" stroke="#E27525" stroke-width="0.25" fill="#E27525" fill-rule="nonzero" stroke-linecap="round" stroke-linejoin="round" points="24.2412 21.6957 24.1243 24.7019 27.2292 18.6506"></polygon>
                <polygon id="path" stroke="#E27525" stroke-width="0.25" fill="#E27525" fill-rule="nonzero" stroke-linecap="round" stroke-linejoin="round" points="15.7972 18.9875 15.1086 22.7842 15.979 27.2675 16.1739 21.3588"></polygon>
                <polygon id="path" stroke="#E27525" stroke-width="0.25" fill="#E27525" fill-rule="nonzero" stroke-linecap="round" stroke-linejoin="round" points="19.8242 18.9875 19.4604 21.3459 19.6423 27.2675 20.5127 22.7842"></polygon>
                <polygon id="path" stroke="#F5841F" stroke-width="0.25" fill="#F5841F" fill-rule="nonzero" stroke-linecap="round" stroke-linejoin="round" points="20.5127 22.7843 19.6423 27.2676 20.2659 27.7082 24.1243 24.702 24.2412 21.6958"></polygon>
                <polygon id="path" stroke="#F5841F" stroke-width="0.25" fill="#F5841F" fill-rule="nonzero" stroke-linecap="round" stroke-linejoin="round" points="11.3928 21.6958 11.4968 24.702 15.3551 27.7082 15.9787 27.2676 15.1083 22.7843"></polygon>
                <polygon id="path" stroke="#C0AC9D" stroke-width="0.25" fill="#C0AC9D" fill-rule="nonzero" stroke-linecap="round" stroke-linejoin="round" points="20.5907 31.8417 20.6296 30.6107 20.2919 30.3256 15.3293 30.3256 15.0045 30.6107 15.0305 31.8417 10.8733 29.8721 12.3283 31.0642 15.2773 33.0986 20.3308 33.0986 23.2928 31.0642 24.7348 29.8721"></polygon>
                <polygon id="path" stroke="#161616" stroke-width="0.25" fill="#161616" fill-rule="nonzero" stroke-linecap="round" stroke-linejoin="round" points="20.2658 27.7081 19.6422 27.2676 15.9787 27.2676 15.3552 27.7081 15.0044 30.6107 15.3292 30.3256 20.2918 30.3256 20.6296 30.6107"></polygon>
                <polygon id="path" stroke="#763E1A" stroke-width="0.25" fill="#763E1A" fill-rule="nonzero" stroke-linecap="round" stroke-linejoin="round" points="33.5168 12.3532 34.6211 6.98873 32.9582 2 20.2659 11.3944 25.1505 15.5149 32.0488 17.5234 33.5688 15.7482 32.9063 15.2687 33.9585 14.3099 33.1531 13.6879 34.2054 12.8845"></polygon>
                <polygon id="path" stroke="#763E1A" stroke-width="0.25" fill="#763E1A" fill-rule="nonzero" stroke-linecap="round" stroke-linejoin="round" points="1 6.98873 2.11724 12.3532 1.40273 12.8845 2.468 13.6879 1.66255 14.3099 2.71483 15.2687 2.05228 15.7482 3.57225 17.5234 10.4706 15.5149 15.3552 11.3944 2.66287 2"></polygon>
                <polygon id="path" stroke="#F5841F" stroke-width="0.25" fill="#F5841F" fill-rule="nonzero" stroke-linecap="round" stroke-linejoin="round" points="32.0489 17.5233 25.1506 15.5149 27.2292 18.6507 24.1243 24.7019 28.2295 24.6501 34.3613 24.6501"></polygon>
                <polygon id="path" stroke="#F5841F" stroke-width="0.25" fill="#F5841F" fill-rule="nonzero" stroke-linecap="round" stroke-linejoin="round" points="10.4704 15.5149 3.57214 17.5233 1.27271 24.6501 7.39154 24.6501 11.4967 24.7019 8.39186 18.6507"></polygon>
                <polygon id="path" stroke="#F5841F" stroke-width="0.25" fill="#F5841F" fill-rule="nonzero" stroke-linecap="round" stroke-linejoin="round" points="19.8241 18.9876 20.2658 11.3943 22.2664 5.99097 13.3545 5.99097 15.3551 11.3943 15.7968 18.9876 15.9657 21.3718 15.9787 27.2676 19.6422 27.2676 19.6552 21.3718"></polygon>
            </g>
        </g>
    </g>
</svg>