<?xml version="1.0" encoding="UTF-8"?>
<svg width="65px" height="58px" viewBox="0 0 65 58" version="1.1" xmlns="http://www.w3.org/2000/svg" xmlns:xlink="http://www.w3.org/1999/xlink">
    <title>opensea</title>
    <g id="page-1" stroke="none" stroke-width="1" fill="none" fill-rule="evenodd">
        <g id="web" transform="translate(-505.000000, -431.000000)" fill="#FFFFFF" fill-rule="nonzero">
            <g id="opensea" transform="translate(505.000000, 431.000000)">
                <path d="M2.23162352,32.5820809 L2.48365009,32.2275866 L17.6811914,10.9560514 C17.9033066,10.6446275 18.4254702,10.6768258 18.5934879,11.0151163 C21.1324483,16.1060967 23.3232217,22.43765 22.2968881,26.379425 C21.8587335,28.0012544 20.6583065,30.1976341 19.3077385,32.2275866 C19.1337618,32.5230159 18.9416748,32.8130091 18.7375532,33.0922347 C18.6415097,33.2211322 18.4794508,33.2962963 18.3053574,33.2962963 L2.67573711,33.2962963 C2.25557597,33.2962963 2.0095083,32.8881732 2.23162352,32.5820809 Z" id="path"></path>
                <path d="M64.4444444,37.0717015 L64.4444444,40.4389005 C64.4444444,40.632199 64.3263117,40.8040663 64.1544442,40.8792322 C63.1019128,41.3303317 59.4983414,42.984398 58.0000418,45.0681327 C54.1763044,50.3901658 51.2548711,58 44.7244302,58 L17.4805101,58 C7.82467399,58 0,50.1485689 0,40.4603317 L0,40.1489005 C0,39.8910995 0.209398132,39.6817015 0.467199327,39.6817015 L15.6546796,39.6817015 C15.9553432,39.6817015 16.1755091,39.9609337 16.1487463,40.2562653 C16.0412769,41.244398 16.2239122,42.2540663 16.6911115,43.1723648 C17.5933112,45.0037347 19.462213,46.1476352 21.4814466,46.1476352 L29.0000209,46.1476352 L29.0000209,40.277801 L21.5673804,40.277801 C21.1861148,40.277801 20.9606171,39.8373648 21.1807831,39.5259337 C21.2612806,39.4023648 21.3526506,39.2735689 21.4492476,39.1285689 C22.152817,38.1296683 23.1570499,36.5776352 24.1559511,34.8107678 C24.8379847,33.6185689 25.4984827,32.3457678 26.0301846,31.0676352 C26.137654,30.8367015 26.2234832,30.6003317 26.3094169,30.369398 C26.4544171,29.9612653 26.6048534,29.58 26.7122182,29.1987347 C26.8196877,28.8764311 26.9055169,28.5381327 26.9914506,28.2212653 C27.2439201,27.1364311 27.351285,25.987199 27.351285,24.795 C27.351285,24.327801 27.3298539,23.8390663 27.286887,23.3718673 C27.2653513,22.8617015 27.2009533,22.3514311 27.1364507,21.8412653 C27.0934838,21.3901658 27.0129863,20.944398 26.9270526,20.477199 C26.8196877,19.7951658 26.6692514,19.1185689 26.4973839,18.4364311 L26.4383175,18.1787347 C26.3094169,17.7114311 26.2020521,17.2657678 26.0517203,16.7985689 C25.6273833,15.3323648 25.1387528,13.9039005 24.6231504,12.5667015 C24.4351834,12.035 24.2203491,11.5248342 24.0055148,11.0146683 C23.6887518,10.2467015 23.366448,9.54856885 23.0711161,8.88796683 C22.9207844,8.58719899 22.7918838,8.31329849 22.6629832,8.03406633 C22.5179831,7.71719899 22.3676513,7.40033165 22.217215,7.09966835 C22.1098501,6.86873468 21.9862812,6.6539005 21.9003474,6.43906633 L20.9820483,4.74203317 C20.8531477,4.5110995 21.067982,4.23719899 21.320347,4.30703317 L27.066721,5.86439798 L27.0828205,5.86439798 C27.0934838,5.86439798 27.09892,5.86983417 27.1042517,5.86983417 L27.8614512,6.07923216 L28.6939212,6.31560202 L29.0000209,6.40143115 L29.0000209,2.98593367 C29.0000209,1.33719899 30.3211214,0 31.9537577,0 C32.7700236,0 33.5111237,0.332966835 34.0428256,0.875331651 C34.5744229,1.41780101 34.90739,2.1589005 34.90739,2.98593367 L34.90739,8.05560202 L35.519694,8.22736482 C35.5679925,8.24356885 35.616291,8.265 35.6592579,8.29719899 C35.8096942,8.41 36.024424,8.57643115 36.2983247,8.78060202 C36.513159,8.95236482 36.7440928,9.16186734 37.0233252,9.37670151 C37.5764582,9.82236482 38.2370607,10.3970332 38.9620613,11.0576352 C39.1553599,11.2240663 39.3433269,11.3959337 39.5151943,11.567801 C40.4496975,12.437801 41.4968973,13.4581327 42.4957985,14.5859337 C42.7750308,14.902801 43.0489315,15.225 43.3281639,15.5632985 C43.6073963,15.9070332 43.9028327,16.2453317 44.1605293,16.5837347 C44.4989326,17.0348342 44.8640987,17.5020332 45.1809662,17.9907678 C45.331298,18.2217015 45.5031655,18.4579668 45.6481656,18.6889005 C46.0562985,19.3064311 46.416133,19.945602 46.7598679,20.5846683 C46.904868,20.88 47.0551998,21.202199 47.1841003,21.5190663 C47.5653659,22.3729668 47.866134,23.2429668 48.0594326,24.1129668 C48.118499,24.3009337 48.1614659,24.505 48.1830016,24.6876352 L48.1830016,24.730602 C48.2473996,24.9882985 48.2689353,25.262199 48.2903665,25.5414311 C48.3763002,26.4329668 48.3333333,27.324398 48.1400347,28.2212653 C48.0594326,28.6026352 47.9520677,28.9623648 47.8231671,29.3437347 C47.6942665,29.7089005 47.5653659,30.0901658 47.3989347,30.45 C47.0767355,31.1964311 46.6953653,31.9429668 46.2442655,32.6410995 C46.0992654,32.8989005 45.9273979,33.172801 45.7555305,33.430602 C45.5675635,33.704398 45.3742649,33.962199 45.2023974,34.2146683 C44.9661319,34.5368673 44.7137669,34.8751658 44.4559657,35.1759337 C44.2250319,35.492801 43.9887664,35.8096683 43.7309652,36.0889005 C43.3711308,36.5131327 43.0273958,36.9159337 42.6675614,37.3026352 C42.4528316,37.555 42.2218978,37.812801 41.9855277,38.0437347 C41.7546985,38.3014311 41.5183284,38.5323648 41.3034941,38.747199 C40.9437642,39.1070332 40.6429961,39.3862653 40.3905266,39.617199 L39.7998629,40.1596683 C39.7139291,40.2348342 39.601128,40.277801 39.4829953,40.277801 L34.90739,40.277801 L34.90739,46.1476352 L40.6644273,46.1476352 C41.9533287,46.1476352 43.1778321,45.6910995 44.1659655,44.8532985 C44.5042642,44.5579668 45.9811326,43.2798342 47.7264656,41.3518673 C47.7855319,41.2873648 47.8608024,41.2390663 47.9467361,41.2176352 L63.8483445,36.620602 C64.1437809,36.5346683 64.4444444,36.7601658 64.4444444,37.0717015 Z" id="path"></path>
            </g>
        </g>
    </g>
</svg>