<?xml version="1.0" encoding="UTF-8"?>
<svg width="50px" height="32px" viewBox="0 0 50 32" version="1.1" xmlns="http://www.w3.org/2000/svg" xmlns:xlink="http://www.w3.org/1999/xlink">
    <title>opensea</title>
    <g id="page-1" stroke="none" stroke-width="1" fill="none" fill-rule="evenodd">
        <g id="b" transform="translate(-156.000000, -160.000000)">
            <g id="Opensea-icon1" transform="translate(156.000000, 160.000000)">
                <rect id="rect-4" fill="#D8D8D8" opacity="0" x="0" y="0" width="50" height="32"></rect>
                <rect id="rect-5" fill="#5249FF" x="0" y="0" width="50" height="32" rx="16"></rect>
                <g id="opensea" transform="translate(15.000000, 6.000000)" fill="#FFFFFF" fill-rule="nonzero">
                    <path d="M1.02863311,11.7466822 L1.11508143,11.6209503 L6.32803118,4.07636633 C6.40421952,3.96591058 6.58332825,3.97733065 6.64096046,4.09731548 C7.51185611,5.90298338 8.26331923,8.14865746 7.91127379,9.54672546 C7.76098117,10.1219556 7.34921946,10.9009671 6.88595747,11.6209503 C6.82628128,11.7257331 6.760393,11.8285878 6.69037667,11.9276235 C6.65743253,11.9733408 6.6018443,12 6.54212803,12 L1.18096972,12 C1.03684911,12 0.952444772,11.855247 1.02863311,11.7466822 Z" id="path"></path>
                    <path d="M22,12.7833453 L22,13.9444484 C22,14.0111031 21.9596719,14.0703677 21.9009999,14.096287 C21.5416875,14.2518385 20.3115027,14.8222062 19.8000143,15.5407354 C18.4946694,17.3759193 17.4973526,20 15.2679951,20 L5.96748448,20 C2.67118181,20 0,17.2926099 0,13.9518385 L0,13.8444484 C0,13.7555516 0.07148419,13.6833453 0.159492184,13.6833453 L5.34418374,13.6833453 C5.44682404,13.6833453 5.52198415,13.7796323 5.51284788,13.8814708 C5.47616004,14.2222062 5.53850796,14.5703677 5.69800014,14.8870224 C6.00599243,15.5185292 6.64399686,15.9129776 7.33332144,15.9129776 L9.90000714,15.9129776 L9.90000714,13.8888969 L7.36265744,13.8888969 C7.23250125,13.8888969 7.15552102,13.7370224 7.23068113,13.6296323 C7.25816133,13.5870224 7.28935313,13.5426099 7.32232936,13.4926099 C7.56251338,13.1481615 7.90533771,12.6129776 8.24634192,12.003713 C8.4791741,11.5926099 8.70465444,11.153713 8.88616646,10.7129776 C8.92285431,10.6333453 8.95215462,10.5518385 8.98149061,10.4722062 C9.03099065,10.3314708 9.08234649,10.2 9.11899864,10.0685292 C9.15568649,9.95739005 9.1849868,9.8407354 9.21432279,9.7314708 C9.30051067,9.35739005 9.33716282,8.9611031 9.33716282,8.55 C9.33716282,8.3888969 9.32984667,8.2203677 9.31517867,8.0592646 C9.30782683,7.88334535 9.28584267,7.70739005 9.26382283,7.5314708 C9.24915483,7.37591925 9.22167464,7.2222062 9.19233864,7.0611031 C9.15568649,6.82591925 9.10433064,6.59260995 9.04565865,6.35739005 L9.02549461,6.2685292 C8.98149061,6.10739005 8.94483846,5.95371305 8.89351831,5.79260995 C8.74865843,5.28702235 8.5818501,4.79444845 8.40583411,4.33334535 C8.34166607,4.15 8.26832608,3.97408075 8.19498608,3.7981615 C8.08684974,3.53334535 7.9768219,3.29260995 7.87600171,3.06481615 C7.82468156,2.9611031 7.78067756,2.86665465 7.73667357,2.7703677 C7.68717353,2.6611031 7.63585338,2.5518385 7.58449754,2.4481615 C7.54784538,2.3685292 7.5056615,2.29444845 7.47632551,2.2203677 L7.16283718,1.63518385 C7.11883318,1.55555155 7.19217317,1.4611031 7.27832536,1.48518385 L9.24001856,2.0222062 L9.2455146,2.0222062 C9.24915483,2.0222062 9.25101064,2.02408075 9.25283075,2.02408075 L9.51132301,2.09628695 L9.79551103,2.1777938 L9.90000714,2.20739005 L9.90000714,1.0296323 C9.90000714,0.4611031 10.3510035,0 10.9083518,0 C11.1870081,0 11.4400043,0.11481615 11.6215163,0.3018385 C11.8029926,0.4888969 11.9166607,0.74444845 11.9166607,1.0296323 L11.9166607,2.7777938 L12.1256886,2.83702235 C12.1421767,2.84260995 12.1586649,2.85 12.1733329,2.8611031 C12.2246887,2.9 12.297993,2.95739005 12.391497,3.0277938 C12.464837,3.08702235 12.5436731,3.1592646 12.6389972,3.23334535 C12.8278254,3.38702235 13.0533414,3.58518385 13.3008416,3.81297765 C13.3668298,3.8703677 13.4309978,3.9296323 13.4896698,3.9888969 C13.8086898,4.2888969 14.1661822,4.6407354 14.5071864,5.0296323 C14.6025105,5.1388969 14.6960146,5.25 14.7913387,5.36665465 C14.8866629,5.48518385 14.9875187,5.6018385 15.075491,5.7185292 C15.1910149,5.87408075 15.3156751,6.03518385 15.4238471,6.20371305 C15.4751672,6.28334535 15.5338392,6.36481615 15.5833393,6.44444845 C15.7226674,6.65739005 15.8455075,6.8777938 15.9628515,7.0981615 C16.0123515,7.2 16.0636716,7.3111031 16.1076756,7.4203677 C16.2378318,7.71481615 16.3405078,8.01481615 16.406496,8.31481615 C16.42666,8.3796323 16.441328,8.45 16.4486798,8.51297765 L16.4486798,8.5277938 C16.470664,8.61665465 16.4780158,8.7111031 16.485332,8.80739005 C16.514668,9.11481615 16.5,9.4222062 16.4340118,9.7314708 C16.406496,9.86297765 16.3698438,9.98702235 16.3258398,10.1185292 C16.2818358,10.2444484 16.2378318,10.3759193 16.1810156,10.5 C16.0710235,10.7573901 15.9408316,11.0148161 15.7868355,11.2555516 C15.7373354,11.3444484 15.6786634,11.4388969 15.6199914,11.5277938 C15.5558234,11.6222062 15.4898352,11.7111031 15.4311633,11.7981615 C15.3505071,11.9092646 15.2643549,12.0259193 15.1763469,12.1296323 C15.0975109,12.2388969 15.0168547,12.3481615 14.9288467,12.4444484 C14.8060067,12.5907354 14.6886627,12.7296323 14.5658227,12.8629776 C14.4925184,12.95 14.4136823,13.0388969 14.3329905,13.1185292 C14.2541902,13.2073901 14.1734983,13.2870224 14.1001583,13.3611031 C13.977354,13.4851839 13.874678,13.5814708 13.7884901,13.6611031 L13.5868497,13.8481615 C13.5575137,13.8740807 13.5190058,13.8888969 13.4786777,13.8888969 L11.9166607,13.8888969 L11.9166607,15.9129776 L13.8819941,15.9129776 C14.3219984,15.9129776 14.7400186,15.7555516 15.0773468,15.4666547 C15.192835,15.3648161 15.6970074,14.9240807 16.2928279,14.2592646 C16.3129919,14.2370224 16.3386877,14.2203677 16.3680237,14.2129776 L21.7965038,12.6277938 C21.8973597,12.5981615 22,12.6759193 22,12.7833453 Z" id="path"></path>
                </g>
            </g>
        </g>
    </g>
</svg>