<?xml version="1.0" encoding="UTF-8"?>
<svg width="60px" height="54px" viewBox="0 0 60 54" version="1.1" xmlns="http://www.w3.org/2000/svg" xmlns:xlink="http://www.w3.org/1999/xlink">
    <title>opensea</title>
    <g id="page-1" stroke="none" stroke-width="1" fill="none" fill-rule="evenodd">
        <g id="web" transform="translate(-509.000000, -571.000000)" fill="#FFFFFF" fill-rule="nonzero">
            <g id="opensea" transform="translate(509.000000, 571.000000)">
                <path d="M2.07771845,30.3350408 L2.31236388,30.0049945 L16.4617989,10.2004616 C16.6685958,9.91051528 17.1547481,9.94049295 17.3111784,10.2554531 C19.675038,14.9953314 21.7147236,20.8902258 20.7591717,24.5601543 C20.3512346,26.0701334 19.2335957,28.1150387 17.9761703,30.0049945 C17.8141921,30.2800493 17.6353524,30.550043 17.4453081,30.8100117 C17.3558883,30.9300197 17.205006,31 17.0429189,31 L2.49120351,31 C2.10001901,31 1.87092152,30.6200233 2.07771845,30.3350408 Z" id="path"></path>
                <path d="M60,34.5150324 L60,37.6500108 C60,37.8299784 59.8900143,37.9899928 59.7299998,38.0599748 C58.7500568,38.479964 55.3950075,40.0199567 54.0000389,41.9599856 C50.4400075,46.914982 47.7200524,54 41.6399868,54 L16.2749577,54 C7.2850413,54 0,46.6900469 0,37.669964 L0,37.3800108 C0,37.1399892 0.194956882,36.9450324 0.434978684,36.9450324 L14.5750466,36.9450324 C14.8549747,36.9450324 15.0599568,37.2050072 15.0350397,37.4799712 C14.9349819,38.3999567 15.1050217,39.3399928 15.5400004,40.1949603 C16.3799794,41.9000288 18.1199914,42.9650397 19.9999676,42.9650397 L27.0000195,42.9650397 L27.0000195,37.5000216 L20.0799748,37.5000216 C19.7250034,37.5000216 19.5150573,37.0899603 19.7200395,36.8000072 C19.7949854,36.6849603 19.880054,36.5650469 19.9699892,36.4300469 C20.6250365,35.500036 21.5600119,34.0550397 22.4900234,32.4100252 C23.1250203,31.3000469 23.7399666,30.1150252 24.2349994,28.9250397 C24.3350572,28.7100324 24.4149671,28.489964 24.4949744,28.2749567 C24.6299745,27.8949712 24.7700359,27.54 24.8699963,27.1850288 C24.9700541,26.8849531 25.049964,26.5699856 25.1299713,26.2749712 C25.3650291,25.2649531 25.4649895,24.1949784 25.4649895,23.085 C25.4649895,22.6500216 25.4450364,22.1949928 25.4050327,21.7600144 C25.3849823,21.2850324 25.3250255,20.8099531 25.2649714,20.3349712 C25.2249677,19.914982 25.1500217,19.4999567 25.0700145,19.0649784 C24.9700541,18.429982 24.8299927,17.8000469 24.6699781,17.1649531 L24.6149853,16.9250288 C24.4949744,16.4899531 24.395014,16.0750252 24.2550499,15.6400469 C23.8599775,14.2749603 23.4050457,12.9450108 22.9250021,11.7000324 C22.7499984,11.205 22.5499802,10.730018 22.349962,10.255036 C22.0550447,9.54003244 21.7549688,8.89004686 21.4800047,8.2750036 C21.3400406,7.99497837 21.2200297,7.73996756 21.1000188,7.47999279 C20.9650187,7.18497837 20.8250547,6.88996395 20.6849933,6.61003605 C20.5850329,6.39502884 20.4699859,6.19501081 20.3899787,5.99499279 L19.5350105,4.4149964 C19.4149996,4.19998919 19.6150177,3.94497837 19.8499783,4.0099964 L25.2000506,5.45995674 L25.2150398,5.45995674 C25.2249677,5.45995674 25.230029,5.46501802 25.234993,5.46501802 L25.9399718,5.65997477 L26.7150301,5.88004326 L27.0000195,5.95995314 L27.0000195,2.78000721 C27.0000195,1.24497837 28.2300095,0 29.7500503,0 C30.510022,0 31.2000117,0.310003605 31.6950445,0.814963951 C32.1899799,1.32002163 32.4999838,2.01001081 32.4999838,2.78000721 L32.4999838,7.50004326 L33.0700599,7.65996035 C33.1150275,7.67504686 33.1599951,7.695 33.1999987,7.72497837 C33.3400601,7.83 33.5399809,7.98495314 33.7949919,8.17504326 C33.9950101,8.33496035 34.2100175,8.53001442 34.4699924,8.73003244 C34.9849784,9.14496035 35.6000221,9.6799964 36.2750225,10.2950397 C36.4549902,10.4499928 36.629994,10.6100072 36.7900085,10.7700216 C37.6600632,11.5800216 38.6350423,12.5299856 39.5650538,13.5800072 C39.8250287,13.8750216 40.0800397,14.175 40.3400147,14.4899676 C40.5999896,14.8099964 40.8750511,15.124964 41.1149756,15.4400288 C41.4300407,15.860018 41.7700229,16.2949964 42.0650375,16.7500252 C42.2050016,16.9650324 42.3650161,17.1850036 42.5000162,17.4000108 C42.8800021,17.9749531 43.2150203,18.5700433 43.5350494,19.165036 C43.6700495,19.44 43.8100136,19.7399784 43.9300245,20.0349928 C44.2849959,20.8300036 44.5650213,21.6400036 44.744989,22.4500036 C44.7999818,22.6250072 44.8399855,22.815 44.8600359,22.9850397 L44.8600359,23.0250433 C44.9199927,23.2649676 44.9400432,23.5199784 44.9599964,23.7799531 C45.0400036,24.6100036 45,25.4399567 44.8200323,26.2749712 C44.744989,26.6300397 44.6450286,26.9649603 44.5250177,27.3200288 C44.4050068,27.6600108 44.2849959,28.014982 44.1300426,28.35 C43.830064,29.0449531 43.4749953,29.7400036 43.0550058,30.3899892 C42.9200057,30.6300108 42.7599912,30.8850216 42.5999766,31.1250433 C42.4249729,31.3799567 42.2450052,31.6199784 42.0849907,31.855036 C41.8650194,32.1550144 41.6300589,32.469982 41.3900371,32.7500072 C41.1750297,33.0450216 40.9550584,33.340036 40.7150366,33.6000108 C40.3800183,33.9949856 40.0599892,34.3700072 39.724971,34.7300397 C39.5250501,34.965 39.3100428,35.2050216 39.0899741,35.4200288 C38.8750641,35.6599531 38.6549954,35.8749603 38.4549773,36.0749784 C38.1200563,36.4099964 37.8400309,36.6699712 37.604973,36.8849784 L37.0550447,37.390036 C36.9750375,37.460018 36.8700158,37.5000216 36.7600301,37.5000216 L32.4999838,37.5000216 L32.4999838,42.9650397 L37.859984,42.9650397 C39.0599957,42.9650397 40.2000506,42.5399892 41.1200369,41.7599676 C41.4350046,41.4850036 42.8100201,40.295018 44.4349852,38.5000144 C44.489978,38.4399603 44.5600574,38.3949928 44.6400646,38.3750397 L59.4450104,34.0950433 C59.7200719,34.015036 60,34.224982 60,34.5150324 Z" id="path"></path>
            </g>
        </g>
    </g>
</svg>