<?xml version="1.0" encoding="UTF-8"?>
<svg width="16px" height="16px" viewBox="0 0 16 16" version="1.1" xmlns="http://www.w3.org/2000/svg" xmlns:xlink="http://www.w3.org/1999/xlink">
    <title>star 7</title>
    <g id="page-1" stroke="none" stroke-width="1" fill="none" fill-rule="evenodd">
        <g id="web" transform="translate(-285.000000, -5894.000000)" fill-rule="nonzero">
            <g id="star-7" transform="translate(285.000000, 5894.000000)">
                <rect id="rect" fill="#000000" opacity="0" x="0.00720642757" y="3.1235686e-08" width="15.9927936" height="15.9927936"></rect>
                <path d="M12.2077414,9.62116271 C12.388271,10.4600941 12.5475617,11.2193801 12.6856138,11.8990208 C12.7493301,12.1857442 12.8077367,12.4724675 12.8608336,12.7591909 C12.9139305,13.0459143 12.9643726,13.3060892 13.0121599,13.5397157 C13.0599471,13.7733422 13.0997698,13.9724557 13.1316279,14.1370561 C13.1634861,14.3016566 13.1847248,14.4051956 13.1953442,14.4476731 C13.2272024,14.6600608 13.1794152,14.8007677 13.0519825,14.8697937 C12.9245499,14.9388197 12.7811882,14.9733327 12.6218974,14.9733327 C12.5688005,14.9733327 12.49181,14.9547487 12.3909258,14.9175809 C12.2900417,14.8804131 12.2130511,14.8512097 12.1599542,14.829971 L8.00246502,12.4087512 C7.2484887,12.8547654 6.56353837,13.2529923 5.94761406,13.603432 C5.68212944,13.7521034 5.41929966,13.9007748 5.15912473,14.0494462 C4.8989498,14.1981176 4.66266849,14.3361696 4.45028079,14.4636022 C4.2378931,14.5910348 4.05470871,14.6972287 3.90072763,14.7821837 C3.74674655,14.8671388 3.64320754,14.9202357 3.59011063,14.9414745 C3.48391678,14.9945714 3.37506808,15.0131554 3.26356453,14.9972263 C3.15206099,14.9812972 3.05117683,14.9414745 2.96091207,14.8777582 C2.8706473,14.8140419 2.80427615,14.7370514 2.7617986,14.6467866 C2.71932105,14.5565218 2.70870167,14.4636022 2.72994044,14.3680277 C2.74055982,14.3255502 2.76710829,14.2220112 2.80958583,14.0574107 C2.85206338,13.8928102 2.89985061,13.6963516 2.95294753,13.4680348 C3.00604445,13.2397181 3.06710591,12.9875077 3.13613193,12.7114037 C3.20515794,12.4352997 3.27683878,12.153886 3.35117446,11.8671626 C3.51046524,11.2087607 3.69099478,10.4654038 3.89276309,9.63709176 C3.26621939,9.09550314 2.70339199,8.61232113 2.2042809,8.18754573 C1.99189321,8.00701619 1.78216035,7.8291415 1.57508234,7.65392164 C1.36800433,7.47870178 1.1821651,7.31941101 1.01756464,7.17604931 C0.852964185,7.03268762 0.717567028,6.91587439 0.611373172,6.82560961 C0.505179315,6.73534484 0.446772695,6.68490276 0.436153314,6.67428338 C0.308720694,6.55747014 0.199871997,6.42738268 0.109607223,6.28402098 C0.0193424486,6.14065929 -0.0151705518,5.99464275 0.0060682217,5.84597136 C0.0273069952,5.69729996 0.0857136144,5.58048673 0.181288079,5.49553166 C0.276862544,5.41057658 0.383056391,5.35747966 0.499869619,5.33624089 L5.42195449,4.89022672 L7.25379838,0.621234022 C7.31751469,0.451323866 7.40777946,0.305307323 7.52459268,0.183184394 C7.64140591,0.0610614646 7.80069669,0 8.00246501,0 C8.10865885,0 8.20157847,0.0238936136 8.28122387,0.0716808409 C8.36086926,0.119468068 8.42724041,0.175219837 8.48033733,0.238936147 C8.53343425,0.302652457 8.57856664,0.366368767 8.61573449,0.430085077 C8.65290235,0.493801387 8.68210566,0.54689831 8.70334442,0.589375846 L10.4874011,4.85836855 L15.4094859,5.32031178 C15.6218736,5.37340871 15.770545,5.43712502 15.8555001,5.51146071 C15.9404552,5.5857964 15.9829327,5.70260964 15.9829327,5.86190041 C15.9829327,6.0105718 15.9378004,6.14065926 15.8475356,6.25216281 C15.7572708,6.36366636 15.6431124,6.49906351 15.5050604,6.65835428 L12.2077414,9.62116271 Z" id="path" fill="#FFFFFF"></path>
            </g>
        </g>
    </g>
</svg>