<?xml version="1.0" encoding="UTF-8"?>
<svg width="50px" height="90px" viewBox="0 0 50 90" version="1.1" xmlns="http://www.w3.org/2000/svg" xmlns:xlink="http://www.w3.org/1999/xlink">
    <title>tip</title>
    <g id="page-1" stroke="none" stroke-width="1" fill="none" fill-rule="evenodd">
        <g id="tip-5" transform="translate(-1097.000000, -4887.000000)" fill="#FF0000" fill-rule="nonzero">
            <g id="tip" transform="translate(1097.463609, 4887.000000)">
                <path d="M3.76480629,0 C1.9790717,0 0.536391101,1.43644571 0.536391101,3.21434625 L0.536391101,86.7856537 C0.536391101,88.5635543 1.9790717,90 3.76480629,90 C5.55054089,90 6.99331607,88.5635543 6.99331607,86.7856537 L6.99331607,3.21434625 C6.99331607,1.43644571 5.55054089,0 3.76480629,0 L3.76480629,0 Z M48.0230094,27.5840351 L5.69003332,1.23692388 C3.54109847,-0.0989499128 0.746442751,1.43787937 0.746442751,3.95905158 L0.746442751,56.643198 C0.746442751,59.1643702 3.53097805,60.7112755 5.69003332,59.3652315 L48.0230094,33.0182145 C50.0408517,31.7726483 50.0408517,28.8395832 48.0230094,27.5840351 Z" id="Shape"></path>
            </g>
        </g>
    </g>
</svg>