<?xml version="1.0" encoding="UTF-8"?>
<svg width="64px" height="52px" viewBox="0 0 64 52" version="1.1" xmlns="http://www.w3.org/2000/svg" xmlns:xlink="http://www.w3.org/1999/xlink">
    <title>path</title>
    <g id="page-1" stroke="none" stroke-width="1" fill="none" fill-rule="evenodd">
        <g id="web" transform="translate(-333.000000, -573.000000)" fill="#FFFFFF" fill-rule="nonzero">
            <path d="M389.889501,585.845124 C389.916969,586.219838 389.930703,586.783627 389.930703,587.536493 C389.930703,591.029239 389.42083,594.51339 388.401083,597.988948 C387.381337,601.464505 385.832833,604.800834 383.755571,607.997934 C381.678309,611.195034 379.20448,614.022577 376.334082,616.480563 C373.463684,618.938548 370.002725,620.89978 365.951207,622.364258 C361.899688,623.828737 357.56834,624.560976 352.957163,624.560976 C345.688463,624.560976 339.036076,622.613495 333,618.718533 C333.937343,618.825103 334.982841,618.878388 336.136493,618.878388 C342.172569,618.878388 347.551132,617.025445 352.272181,613.319559 C349.456719,613.264555 346.934821,612.398244 344.706485,610.720626 C342.47815,609.043008 340.94853,606.901294 340.117625,604.295486 C341.003466,604.429558 341.822353,604.496594 342.574288,604.496594 C343.727941,604.496594 344.867859,604.348771 345.994044,604.053125 C342.98974,603.434331 340.502176,601.937195 338.531353,599.561715 C336.560529,597.186235 335.575118,594.427447 335.575118,591.28535 L335.575118,591.125495 C337.398301,592.146505 339.357107,592.696544 341.451536,592.775612 C339.679855,591.593028 338.272124,590.049482 337.228343,588.144973 C336.184562,586.240464 335.660955,584.172662 335.657522,581.941567 C335.657522,579.576401 336.248082,577.388278 337.429203,575.377199 C340.673851,579.378731 344.624082,582.580987 349.279894,584.983969 C353.935707,587.386951 358.917702,588.722514 364.225878,588.990658 C364.013001,587.969648 363.906563,586.976141 363.906563,586.010135 C363.906563,582.410819 365.173521,579.342634 367.707437,576.805581 C370.241353,574.268527 373.305743,573 376.900607,573 C380.656846,573 383.822524,574.36994 386.397642,577.109821 C389.322976,576.546031 392.073201,575.499239 394.648319,573.969443 C393.65604,577.056536 391.75217,579.447485 388.936708,581.142292 C391.432855,580.874148 393.927286,580.20207 396.42,579.126056 C394.613984,581.749054 392.440585,583.992181 389.889501,585.845124 Z" id="path"></path>
        </g>
    </g>
</svg>