<?xml version="1.0" encoding="UTF-8"?>
<svg width="67px" height="54px" viewBox="0 0 67 54" version="1.1" xmlns="http://www.w3.org/2000/svg" xmlns:xlink="http://www.w3.org/1999/xlink">
    <title>path</title>
    <g id="page-1" stroke="none" stroke-width="1" fill="none" fill-rule="evenodd">
        <g id="web" transform="translate(-329.000000, -433.000000)" fill="#FFFFFF" fill-rule="nonzero">
            <path d="M388.580585,446.452745 C388.609352,446.845185 388.623736,447.435644 388.623736,448.224123 C388.623736,451.882088 388.089743,455.531053 387.021759,459.171017 C385.953775,462.810981 384.33202,466.305131 382.156497,469.653465 C379.980973,473.0018 377.390122,475.963096 374.383944,478.537354 C371.377765,481.111611 367.753091,483.165617 363.50992,484.69937 C359.26675,486.233123 354.730513,487 349.90121,487 C342.288675,487 335.321605,484.960396 329,480.881188 C329.981683,480.992799 331.076636,481.048605 332.284861,481.048605 C338.606466,481.048605 344.239454,479.108011 349.183827,475.226823 C346.235183,475.169217 343.593989,474.261926 341.260245,472.504951 C338.926502,470.747975 337.324525,468.504951 336.454315,465.775878 C337.382059,465.916292 338.239683,465.986499 339.027187,465.986499 C340.235412,465.986499 341.429253,465.831683 342.60871,465.522052 C339.462292,464.873987 336.857057,463.306031 334.793006,460.818182 C332.728956,458.330333 331.69693,455.441044 331.69693,452.150315 L331.69693,451.982898 C333.606357,453.052205 335.657822,453.628263 337.851325,453.711071 C335.995837,452.472547 334.521515,450.855986 333.42836,448.861386 C332.335204,446.866787 331.786828,444.70117 331.783232,442.364536 C331.783232,439.887489 332.401728,437.59586 333.63872,435.489649 C337.036852,439.680468 341.173943,443.034203 346.049993,445.550855 C350.926044,448.067507 356.143705,449.466247 361.702977,449.747075 C361.480031,448.677768 361.368558,447.637264 361.368558,446.625563 C361.368558,442.855986 362.695447,439.642664 365.349227,436.985599 C368.003006,434.328533 371.212353,433 374.977268,433 C378.911191,433 382.226617,434.434743 384.923547,437.30423 C387.98726,436.713771 390.867582,435.617462 393.564512,434.015302 C392.525295,437.248425 390.531364,439.752475 387.582721,441.527453 C390.196945,441.246625 392.809371,440.542754 395.42,439.415842 C393.528553,442.162916 391.252344,444.512151 388.580585,446.452745 Z" id="path"></path>
        </g>
    </g>
</svg>