<?xml version="1.0" encoding="UTF-8"?>
<svg width="50px" height="50px" viewBox="0 0 50 50" version="1.1" xmlns="http://www.w3.org/2000/svg" xmlns:xlink="http://www.w3.org/1999/xlink">
    <title>upload</title>
    <defs>
        <linearGradient x1="50%" y1="0%" x2="65.6782558%" y2="100%" id="linearGradient-1">
            <stop stop-color="#E25F5F" offset="0%"></stop>
            <stop stop-color="#7DE645" offset="61.2284738%"></stop>
            <stop stop-color="#5BC9F0" offset="100%"></stop>
        </linearGradient>
    </defs>
    <g id="page-1" stroke="none" stroke-width="1" fill="none" fill-rule="evenodd">
        <g id="web" transform="translate(-977.000000, -211.000000)" fill-rule="nonzero">
            <g id="page" transform="translate(977.000000, 211.000000)">
                <rect id="rect" fill="#000000" opacity="0" x="0" y="0" width="50" height="50"></rect>
                <path d="M25.8615506,47.4137931 C13.9777657,47.4137931 4.31034483,37.7463722 4.31034483,25.8625874 C4.31034483,13.9788025 13.9777657,4.31034483 25.8615506,4.31034483 C26.7170326,4.31034483 27.411075,5.00438723 27.411075,5.85986922 C27.411075,6.71535121 26.7170326,7.40939362 25.8615506,7.40939362 C15.6867056,7.40939362 7.40939362,15.687693 7.40939362,25.862538 C7.40939362,36.0373829 15.6867056,44.3146949 25.8615506,44.3146949 C36.0363955,44.3146949 44.3146949,36.0373829 44.3146949,25.862538 C44.3146949,20.7478633 42.2698421,15.991318 38.5574213,12.4715881 C37.9369895,11.8824568 37.910774,10.9018714 38.498918,10.2804522 C39.0870619,9.65799614 40.0686347,9.63380488 40.6900539,10.2219488 C45.0259181,14.333871 47.4137931,19.8883823 47.4137931,25.862538 C47.4137931,37.7463722 37.7453354,47.4137931 25.8615506,47.4137931 Z" id="path" fill="url(#linearGradient-1)"></path>
            </g>
        </g>
    </g>
</svg>