<?xml version="1.0" encoding="UTF-8"?>
<svg width="240px" height="40px" viewBox="0 0 240 40" version="1.1" xmlns="http://www.w3.org/2000/svg" xmlns:xlink="http://www.w3.org/1999/xlink">
    <title>group 5</title>
    <defs>
        <linearGradient x1="9.26095097%" y1="49.0818559%" x2="89.5902628%" y2="50.9823537%" id="linearGradient-1">
            <stop stop-color="#49D3D9" offset="0%"></stop>
            <stop stop-color="#DA9B8C" offset="33.8899626%"></stop>
            <stop stop-color="#6DB981" offset="67.8972151%"></stop>
            <stop stop-color="#DCC060" offset="100%"></stop>
        </linearGradient>
    </defs>
    <g id="page-1" stroke="none" stroke-width="1" fill="none" fill-rule="evenodd">
        <g id="web" transform="translate(-137.000000, -323.000000)">
            <g id="group-5" transform="translate(137.000000, 323.000000)">
                <rect id="rect" fill="url(#linearGradient-1)" x="0" y="0" width="240" height="40" rx="20"></rect>
                <g id="opensea" transform="translate(28.000000, 6.000000)" fill="#FFFFFF" fill-rule="nonzero">
                    <path d="M1.07256621,15.1896753 L1.18754673,15.0270909 L8.12102669,5.27116336 C8.22236094,5.12833265 8.46058437,5.14309997 8.53723805,5.29825277 C9.69557217,7.63316816 10.6950551,10.5370571 10.2268174,12.3449036 C10.0269208,13.0887357 9.47925741,14.0960782 8.86309615,15.0270909 C8.78372387,15.1625859 8.69608921,15.2955877 8.60296405,15.4236511 C8.55914671,15.4827683 8.48521163,15.5172414 8.40578605,15.5172414 L1.2751814,15.5172414 C1.08349389,15.5172414 0.971231963,15.3300607 1.07256621,15.1896753 Z" id="path"></path>
                    <path d="M30,17.1913955 L30,18.7528789 C30,18.842518 29.9450072,18.9222186 29.8649999,18.9570756 C29.3750284,19.1662656 27.6975037,19.9333118 27.0000195,20.8996097 C25.2200038,23.3676155 23.8600262,26.8965517 20.8199934,26.8965517 L8.13747883,26.8965517 C3.64252065,26.8965517 0,23.2555789 0,18.7628173 L0,18.6183962 C0,18.4988452 0.0974784409,18.4017403 0.217489342,18.4017403 L7.28752328,18.4017403 C7.42748733,18.4017403 7.52997839,18.5312296 7.51751984,18.6681849 C7.46749096,19.1264152 7.55251085,19.5946324 7.77000019,20.0204783 C8.18998968,20.8697462 9.05999572,21.4002113 9.99998378,21.4002113 L13.5,21.4002113 L13.5,18.6781717 L10.0399874,18.6781717 C9.8625017,18.6781717 9.75752866,18.4739266 9.86001973,18.3295055 C9.89749272,18.2722025 9.94002699,18.2124754 9.98499458,18.1452341 C10.3125182,17.6820103 10.780006,16.9622803 11.2450117,16.1429244 C11.5625101,15.5900617 11.8699833,14.999821 12.1174997,14.4071079 C12.1675286,14.3000162 12.2074836,14.1904035 12.2474872,14.0833118 C12.3149872,13.8940469 12.3850179,13.7172414 12.4349982,13.5404358 C12.485027,13.3909728 12.524982,13.2340924 12.5649856,13.0871504 C12.6825146,12.5840763 12.7324948,12.0511387 12.7324948,11.4982759 C12.7324948,11.28162 12.7225182,11.0549773 12.7025164,10.8383214 C12.6924911,10.6017403 12.6625127,10.3651108 12.6324857,10.1285297 C12.6124839,9.91933968 12.5750109,9.71262213 12.5350072,9.49596624 C12.485027,9.17968451 12.4149963,8.86592373 12.3349891,8.54959352 L12.3074927,8.43009099 C12.2474872,8.21338662 12.197507,8.00671755 12.127525,7.79006166 C11.9299888,7.11013351 11.7025229,6.44770654 11.4625011,5.82760237 C11.3749992,5.58103448 11.2749901,5.34445342 11.174981,5.10787236 C11.0275224,4.7517403 10.8774844,4.42799269 10.7400023,4.12164931 C10.6700203,3.98217313 10.6100149,3.85515625 10.5500094,3.72566691 C10.4825094,3.57872486 10.4125273,3.43178281 10.3424966,3.29235512 C10.2925164,3.18526341 10.234993,3.08563757 10.1949893,2.98601173 L9.76750524,2.19904035 C9.70749979,2.09194864 9.80750887,1.96493176 9.92498913,1.99731621 L12.6000253,2.71951868 L12.6075199,2.71951868 C12.6124839,2.71951868 12.6150145,2.72203963 12.6174965,2.72203963 L12.9699859,2.81914452 L13.357515,2.92875718 L13.5,2.96855903 L13.5,1.38467792 C13.5,0.620104169 14.1150048,0 14.8750251,0 C15.255011,0 15.6000058,0.154407926 15.8475222,0.405920742 C16.09499,0.657482038 16.2499919,1.00115481 16.2499919,1.38467792 L16.2499919,3.73565373 L16.5350299,3.81530592 C16.5575137,3.82282028 16.5799975,3.83275862 16.5999994,3.84769038 C16.67003,3.9 16.7699905,3.97717972 16.897496,4.07186063 C16.997505,4.15151282 17.1050087,4.24866619 17.2349962,4.34829202 C17.4924892,4.55496109 17.800011,4.82145414 18.1375113,5.12779753 C18.2274951,5.20497725 18.314997,5.28467792 18.3950043,5.36437859 C18.8300316,5.76782687 19.3175211,6.24098899 19.7825269,6.76398827 C19.9125144,6.91093031 20.0400199,7.06034483 20.1700073,7.21722522 C20.2999948,7.37662656 20.4375255,7.53350695 20.5574878,7.69043582 C20.7150203,7.89962584 20.8850115,8.11628173 21.0325188,8.34292445 C21.1025008,8.45001616 21.1825081,8.55958034 21.2500081,8.66667205 C21.440001,8.95304179 21.6075102,9.24944683 21.7675247,9.5458034 C21.8350248,9.68275862 21.9050068,9.83217313 21.9650122,9.97911518 C22.1424979,10.3750976 22.2825107,10.7785459 22.3724945,11.1819941 C22.3999909,11.2691607 22.4199927,11.3637931 22.430018,11.4484872 L22.430018,11.4684124 C22.4599964,11.5879149 22.4700216,11.7149318 22.4799982,11.8444211 C22.5200018,12.2578562 22.5,12.6712428 22.4100162,13.0871504 C22.3724945,13.2640044 22.3225143,13.4308232 22.2625088,13.6076772 C22.2025034,13.7770169 22.1424979,13.9538224 22.0650213,14.1206897 C21.915032,14.4668349 21.7374976,14.8130286 21.5275029,15.1367762 C21.4600029,15.2563272 21.3799956,15.3833441 21.2999883,15.5028951 C21.2124865,15.6298635 21.1225026,15.7494145 21.0424953,15.8664931 C20.9325097,16.0159076 20.8150294,16.172788 20.6950185,16.3122641 C20.5875148,16.4592062 20.4775292,16.6061482 20.3575183,16.7356376 C20.1900091,16.9323683 20.0299946,17.1191607 19.8624855,17.2984872 C19.7625251,17.4155172 19.6550214,17.5350682 19.5449871,17.64216 C19.437532,17.7616625 19.3274977,17.8687542 19.2274886,17.96838 C19.0600282,18.1352472 18.9200154,18.2647366 18.8024865,18.3718283 L18.5275224,18.6233896 C18.4875187,18.6582465 18.4350079,18.6781717 18.3800151,18.6781717 L16.2499919,18.6781717 L16.2499919,21.4002113 L18.929992,21.4002113 C19.5299979,21.4002113 20.1000253,21.1885004 20.5600184,20.7999838 C20.7175023,20.6630286 21.40501,20.0703155 22.2174926,19.1762524 C22.244989,19.1463404 22.2800287,19.1239428 22.3200323,19.1140044 L29.7225052,16.9822055 C29.8600359,16.9423551 30,17.0469259 30,17.1913955 Z" id="path"></path>
                </g>
                <text id="View-On-OpenSea" font-family="Krungthep" font-size="16" font-weight="bold" fill="#FFFFFF">
                    <tspan x="68" y="26">View On OpenSea</tspan>
                </text>
            </g>
        </g>
    </g>
</svg>