<?xml version="1.0" encoding="UTF-8"?>
<svg width="24px" height="24px" viewBox="0 0 24 24" version="1.1" xmlns="http://www.w3.org/2000/svg" xmlns:xlink="http://www.w3.org/1999/xlink">
    <title>Wallet-icon</title>
    <g id="page-1" stroke="none" stroke-width="1" fill="none" fill-rule="evenodd">
        <g id="board" transform="translate(-270.000000, -326.000000)" fill-rule="nonzero">
            <g id="Wallet-icon" transform="translate(270.000000, 326.000000)">
                <rect id="rect" fill="#000000" opacity="0" x="0" y="0" width="24" height="24"></rect>
                <path d="M22,12.390907 C21.9480267,12.386694 21.8958992,12.3845897 21.84375,12.3845993 L18.09375,12.3845993 C17.0582813,12.3845993 16.21875,13.2112162 16.21875,14.2307566 C16.21875,15.250297 17.0582813,16.0769139 18.09375,16.0769139 L21.84375,16.0769139 C21.8964063,16.0769139 21.9484375,16.07476 22,16.0706062 L22,19.1538427 C22,20.1733831 21.1604687,21 20.125,21 L3.875,21 C2.83953125,21 2,20.1733831 2,19.1538427 L2,9.30767051 C2,8.28813015 2.83953125,7.46151322 3.875,7.46151322 L20.125,7.46151322 C21.1604687,7.46151322 22,8.28813015 22,9.30767051 L22,12.390907 L22,12.390907 Z M20.533125,6.53843458 L4.78625,6.53843458 C4.97668883,6.40092016 5.19174453,6.29997864 5.42015625,6.24089556 L17.6345313,3.0624281 C18.6339063,2.80242761 19.6610938,3.37827484 19.9290625,4.34889203 L20.533125,6.53843458 Z M18.09375,12.9999851 L21.375,12.9999851 C21.720178,12.9999851 22,13.2755027 22,13.6153708 L22,14.8461424 C22,15.1860105 21.720178,15.4615281 21.375,15.4615281 L18.09375,15.4615281 C17.4033941,15.4615281 16.84375,14.910493 16.84375,14.2307566 C16.84375,13.5510203 17.4033941,12.9999851 18.09375,12.9999851 L18.09375,12.9999851 Z M18.25,14.9999888 C18.6814725,14.9999888 19.03125,14.6555918 19.03125,14.2307566 C19.03125,13.8059214 18.6814725,13.4615244 18.25,13.4615244 C17.8185275,13.4615244 17.46875,13.8059214 17.46875,14.2307566 C17.46875,14.6555918 17.8185275,14.9999888 18.25,14.9999888 Z" id="stroke" fill="#FFFFFF"></path>
            </g>
        </g>
    </g>
</svg>